<svg width="64" height="69" viewBox="0 0 64 69" fill="none" xmlns="http://www.w3.org/2000/svg">
<path d="M33.2141 66L8.53329 66C5.47734 66 3 63.6495 3 60.75C3 57.8505 5.47734 55.5 8.53329 55.5L55.4667 55.5C58.5227 55.5 61 53.1495 61 50.25C61 47.3505 58.5227 45 55.4667 45L8.53329 45C5.47734 45 3 42.6495 3 39.75C3 36.8505 5.47734 34.5 8.53329 34.5L55.4667 34.5C58.5227 34.5 61 32.1495 61 29.25C61 26.3505 58.5227 24 55.4667 24L8.53329 24C5.47734 24 3 21.6495 3 18.75C3 15.8505 5.47734 13.5 8.53329 13.5L55.4667 13.5C58.5227 13.5 61 11.1495 61 8.25C61 5.35051 58.5227 3 55.4667 3L33.2141 3" stroke="#FF4D4D" stroke-width="6"/>
</svg>
